# xmcd
#
# Track frame offsets:
#	150
#	15635
#	32640
#	46341
#	60122
#	77919
#	95464
#	106497
#	122122
#	136835
#	153480
#	165193
#
# Disc length: 2388 seconds
#
# Revision: 1
# Processed by: cddbd v1.5.2PL0 Copyright (c) Steve Scherf et al.
# Submitted via: audiograbber 1.83.01
#
DISCID=8809520c
DTITLE=Normand Roussy - Pourquoi M'as Tu Quitté
DYEAR=1900
DGENRE=Country
TTITLE0=Tu En As Le Droit(Gérald Leblanc-Gérald Leblanc)
TTITLE1=Cette Journée Spéciale(Paul Dwayne-Paul Dwayne)
TTITLE2=Pourquoi Nous Faire Souffrir Papa(Aurèle Thibault-Aurèle Thibault)
TTITLE3=La Clé De Mon Coeur(Bob Poirier-Bob Poirier)
TTITLE4=Souvent Elle Pleure(Raymonde Denis-Raymonde Denis)
TTITLE5=Papa Sèche Tes Larmes(Dany-Jeffrey-Dany Jeffrey)
TTITLE6=Neige Sur La Bible De Mon Père(Adé Gagnon-Adé Gagnon)
TTITLE7=Pourquoi M'as Tu Quitté(Normand Roussy-Normand Roussy)
TTITLE8=Maman Si Tu L'aimes(Gérald Leblanc-Gérald Leblanc)
TTITLE9=C.B. Buddie(Pierre Robichaud-Pierre Robichaud)
TTITLE10=Mon Chagrin D'amour(Pierre Ferlatte-Pierre Ferlatte)
TTITLE11=T'envoler(Paul Daraiche-Paul Daraiche)
EXTD=
EXTT0=
EXTT1=
EXTT2=
EXTT3=
EXTT4=
EXTT5=
EXTT6=
EXTT7=
EXTT8=
EXTT9=
EXTT10=
EXTT11=
PLAYORDER=
